<?xml version="1.0" encoding="UTF-8"?>
<svg id="Layer_1" data-name="Layer 1" xmlns="http://www.w3.org/2000/svg" viewBox="0 0 63 59.14">
  <defs>
    <style>
      .cls-1 {
        fill: #aac1b0;
      }

      .cls-2 {
        fill: none;
        stroke: #aac1b0;
        stroke-miterlimit: 10;
        stroke-width: 4px;
      }
    </style>
  </defs>
  <rect class="cls-2" x="2" y="2" width="59" height="55.14" rx="11.44" ry="11.44"/>
  <g id="H3MTIS.tif">
    <g>
      <path class="cls-1" d="M34.96,25.11c.28-.2,.4-.25,.47-.34,2.97-3.84,6.94-4.37,11.3-3.25,3.38,.87,5.03,3.39,5.74,6.64,.4,1.81,.52,3.64,.52,5.49-.01,4.52-.03,9.05,.02,13.57,.01,.96-.22,1.35-1.25,1.31-1.96-.07-3.94-.07-5.91,0-.96,.03-1.2-.32-1.19-1.24,.04-4.06,.02-8.13,.02-12.19,0-1.26-.05-2.51-.4-3.73-.56-1.95-1.69-2.91-3.53-3.02-2.23-.14-4.03,.8-4.79,2.52-.47,1.09-.61,2.26-.61,3.44,0,4.27-.04,8.55,.03,12.81,.02,1.13-.34,1.44-1.44,1.4-1.96-.08-3.94-.05-5.91,0-.82,.02-1.1-.27-1.09-1.09,.02-8.21,.02-16.42,0-24.63,0-.9,.33-1.14,1.18-1.11,1.92,.06,3.85,.06,5.78,0,.84-.02,1.12,.27,1.06,1.09-.06,.71-.01,1.42-.01,2.33Z"/>
      <path class="cls-1" d="M21.78,35.03c0,4.06-.02,8.13,.02,12.19,.01,.96-.26,1.35-1.28,1.32-2.01-.07-4.02-.06-6.03,0-.9,.02-1.14-.33-1.14-1.18,.02-8.17,.02-16.34,0-24.51,0-.85,.22-1.18,1.13-1.15,2.05,.07,4.11,.06,6.16,0,.89-.03,1.16,.28,1.15,1.15-.03,4.06-.02,8.13-.02,12.19h0Z"/>
      <path class="cls-1" d="M22.37,13.17c.02,2.66-2.06,4.79-4.73,4.84-2.7,.04-4.87-2.11-4.87-4.83s2.17-4.79,4.8-4.8c2.62,0,4.78,2.14,4.8,4.79h0Z"/>
    </g>
  </g>
</svg>