<?xml version="1.0" encoding="utf-8"?>
<!-- Generator: Adobe Illustrator 27.2.0, SVG Export Plug-In . SVG Version: 6.00 Build 0)  -->
<svg version="1.1" id="Layer_1" xmlns="http://www.w3.org/2000/svg" xmlns:xlink="http://www.w3.org/1999/xlink" x="0px" y="0px"
	 viewBox="0 0 866.8 523.7" style="enable-background:new 0 0 866.8 523.7;" xml:space="preserve">
<style type="text/css">
	.st0{fill:#1A2032;}
</style>
<path class="st0" d="M507.1,0.2c49.8,0,99.5,0,149.3,0c48.5,0,97,0,145.5-0.2c8.8,0,17.4-0.1,26,1.9c10.7,2.5,21.7,11.5,22,24.6
	c0.6,26.9,1.7,53.8,2.7,80.6c4.7,127.7,9.6,255.4,14.2,383.2c0.4,12.2-3.5,22.8-15.4,28.8c-2,1-4.1,1.4-6.3,1.6
	c-50.8,3.5-101.6,2.4-152.4,2.9c-61.2,0.7-122.4,0.9-183.6,1.4c-45.4,0.4-90.8,0.9-136.1,1.3c-36,0.3-72,0.4-108,0.7
	c-16.1,0.1-32.2,0.7-48.3,0.6c-26-0.2-45.5-10.8-55.8-35.8c-3.6-8.8-8-17.3-11.5-26.2c-3.9-9.7-11.1-14.2-20.8-17.6
	c-25.2-8.7-46.4-23.3-59.9-47c-6.4-11.3-8.3-24.1-10.9-36.7c-1.7-8.4-2.7-17-6-25c-1.2-2.9-2.8-5-5.6-6.5
	c-11.3-5.7-21.1-13.3-28.9-23.4c-9.8-12.7-13.7-27.7-16-43.1c-2.7-17.9-1.1-35.6,6.6-52.2c6-12.9,15.4-23.5,26.8-31.5
	c10.2-7.1,13.9-15.4,14.9-27.7c2.3-29.5,18.3-50.8,44.1-65c11.5-6.2,23.4-11.3,36-14.6c7-1.9,11-6.1,12.8-12.8
	c3.1-11,6.8-21.8,13.9-31C166.9,18,179.2,7.2,196.6,3.2c5.6-1.3,11.1-1.5,16.7-1.5c40.5-0.2,81-0.4,121.6-0.5
	C382.6,1.1,430.3,1.1,478,1c9.7,0,19.4,0,29.1,0C507.1,0.8,507.1,0.5,507.1,0.2L507.1,0.2z M49.3,247.3c-0.2,14.4,10.7,26.5,24,26.8
	c14,0.2,25.5-11.7,25.8-26.7c0.3-14.5-10.7-26.4-24.7-26.6S49.5,232.2,49.3,247.3L49.3,247.3z"/>
</svg>
