<?xml version="1.0" encoding="UTF-8"?>
<svg id="Layer_1" data-name="Layer 1" xmlns="http://www.w3.org/2000/svg" viewBox="0 0 290.21 298.9">
  <defs>
    <style>
      .cls-1 {
        fill: #4aa5a5;
      }
    </style>
  </defs>
  <path class="cls-1" d="M175.13,183.87c6.73,1.99,13.42,4.1,20.19,5.96,20.63,5.68,41.3,11.26,61.94,16.9,9.61,2.63,19.21,5.31,28.83,7.94,1.26,.34,2.75,1.16,3.75-.26,1-1.41-.28-2.56-.96-3.66-6.35-10.27-15.41-17.52-25.86-23.26-11.38-6.25-23.39-11.15-35.22-16.42-6.56-2.93-13.39-5.25-20.02-8.03-16.21-6.79-32.92-12.21-49.51-17.97-10.3-3.58-20.62-7.12-30.93-10.67-.48-.16-1.06-.58-1.48-.12-.48,.53,0,1.1,.25,1.62,2.07,4.47,5.19,8.27,7.92,12.32,3.62,5.37,7.24,10.74,10.66,16.24,2.2,3.55,4.69,6.92,6.56,10.67,.68,1.37,1.78,2.05,3.23,2.48,6.9,2.03,13.78,4.15,20.66,6.24,0,.01,0,.03-.01,.04Z"/>
  <path class="cls-1" d="M102.82,124.74c-7.92-2-11.11-.17-13.71,7.17-1.34,3.81-1.75,7.67-1.69,11.64,.02,1.16,.5,2.15,1.15,3.1,3.2,4.71,7.48,8.47,11.18,12.75,11.14,12.88,22.99,25.14,33.99,38.14,14.61,17.27,29.17,34.6,43.77,51.88,10.68,12.65,21.16,25.48,32.5,37.56,3.5,3.73,6.88,7.6,10.66,11.07,.64,.59,1.25,1.21,2.14,.57,1-.72,.73-1.6,.17-2.49-3.19-5.1-6.37-10.2-9.56-15.3-7.6-12.14-15.21-24.27-22.82-36.41-2.66-4.24-5.22-8.56-8-12.72-16.41-24.47-31.24-49.94-46.96-74.84-4.56-7.22-8.93-14.57-14.44-21.14-3.42-4.08-7.91-6.63-12.6-8.91-1.97-.96-4.01-1.72-5.76-2.1Z"/>
  <path class="cls-1" d="M119,1.82c5.05,1.67,9.47,4.46,12.73,8.6,5.57,7.07,9.87,14.87,10.65,24.06,1.17,13.89-2.89,25.84-13.78,35.03-3.11,2.62-6.35,5.08-9.47,7.67-1.86,1.54-2.84,3.53-2.84,6.02-.01,2.96,.2,5.89,.67,8.8,1.12,6.92,2.3,13.83,3.04,20.81,.49,4.61,.28,9.18-.51,13.73-.34,1.99-2.02,2.83-3.21,1.59-2.13-2.23-4.9-3.48-7.49-4.94-2.4-1.35-5.03-2.29-7.95-1.91-3.09,.4-3.86-.62-2.65-3.48,.86-2.02,1.65-4.04,1.88-6.24,1.37-13.51-1.82-26.04-8.67-37.59-3.69-6.22-8.11-12-12.04-18.09-1.82-2.81-2.99-5.72-3.35-9-1.12-10.19-.22-20.1,3.97-29.61,2.76-6.25,7.09-10.9,13.2-13.92,7.29-3.61,14.89-4.24,22.75-2.32,1.03,.25,2.08,.43,3.09,.76Zm.76,10.79c-9.63-6.13-21.37-2.91-25.89,7.57-4.69,10.88-2.92,21.22,3.15,31.02,2.99,4.83,7.11,8.44,12.53,10.43,8.33,3.06,17.55-.24,21.81-9.81,.69-1.56,1.17-3.21,1.75-4.81,3-12.93-3.24-27.97-13.35-34.4Z"/>
  <path class="cls-1" d="M20.26,113.46c-10.69-5.53-15.89-14.84-18.87-25.81C-.11,82.09-.14,76.35,.14,70.62c.35-7.28,2.46-14.15,5.03-20.88,2.36-6.2,5.88-11.66,10.89-16.09,1.23-1.09,2.56-1.93,4.28-1.71,2.01,.26,3.94,.79,5.58,2.04,5.73,4.36,11.23,9,16.05,14.34,10.58,11.71,20.6,23.92,30.35,36.32,4.5,5.72,8.19,12.18,10.31,19.22,1.61,5.33,4.04,10.18,6.9,14.84,1.39,2.26,1.42,4.31,.48,6.66-1.6,3.99-3.24,7.98-3.84,12.29-.17,1.23-.4,2.44-.6,3.66-.14,.87-.55,1.59-1.39,1.91-.92,.34-1.59-.2-2.16-.84-1.41-1.59-2.79-3.19-4.17-4.8-2.64-3.07-5.68-5.66-9.35-7.4-5.99-2.84-12.23-4.95-19.79-6.04-9.3-2.23-19.07-5.83-28.46-10.68Zm37.75,2.22c2.61-.06,5.36-.15,7.65-1.58,3.79-2.36,4.03-6.31,3.02-9.66-1.08-3.6-3.15-6.7-5.25-9.76-6.19-9.05-13.87-16.77-21.73-24.32-5.26-5.06-10.1-10.55-15.53-15.44-1.41-1.27-2.89-2.42-4.56-3.31-1.76-.93-3.25-.71-4.63,.74-1.07,1.12-1.91,2.4-2.44,3.86-3.48,9.69-3.97,19.61-1.68,29.57,1.46,6.35,5.3,11.47,9.93,15.97,6.8,6.62,15.44,9.44,24.34,11.69,.4,.1,.81,.16,1.21,.24,3.24,.56,6.32,2.08,9.66,2Z"/>
</svg>