<?xml version="1.0" encoding="utf-8"?>
<!-- Generator: Adobe Illustrator 27.2.0, SVG Export Plug-In . SVG Version: 6.00 Build 0)  -->
<svg version="1.1" id="Layer_1" xmlns="http://www.w3.org/2000/svg" xmlns:xlink="http://www.w3.org/1999/xlink" x="0px" y="0px"
	 viewBox="0 0 249 151.7" style="enable-background:new 0 0 249 151.7;" xml:space="preserve">
<style type="text/css">
	.st0{fill:#FFFFFF;}
</style>
<g>
	<path d="M151.5,151.7c-29,0-58,0-87,0c-10.9,0-15.4-2.6-19.4-12.9c-2.1-5.4-5-9.1-10.9-11.2c-9.7-3.5-15.8-10.8-17.3-21.4
		c-0.8-5.5-2.6-9.8-7.8-13.4c-12.6-9-12.1-29.7,0.4-40c2.7-2.3,4.3-4.5,4.6-8.2C15.4,32.1,24,25.9,35,22.5c3.8-1.2,5.7-3.2,6.9-6.9
		C44.8,5.7,52.4,0.4,62.7,0.4C119,0.3,175.4,0.1,231.7,0c10.2,0,12.5,2.4,12.9,12.6c1.4,41.8,2.9,83.6,4.4,125.4
		c0.4,9.7-1.4,12-11.1,12.1c-28.8,0.1-57.6,0-86.4,0C151.5,150.6,151.5,151.2,151.5,151.7z M21,78.9c3.9,0.1,7.4-3.4,7.5-7.7
		c0.1-4.1-3.4-7.9-7.3-7.9c-3.6,0-7,3.5-7.2,7.5C13.8,75.1,17,78.8,21,78.9z"/>
	<path class="st0" d="M21,78.9c-4-0.1-7.2-3.8-7-8.1c0.2-4,3.6-7.5,7.2-7.5c3.9,0,7.4,3.8,7.3,7.9C28.4,75.5,25,79,21,78.9z"/>
</g>
</svg>
